:SAMPLES-PER-SECOND 25
:FULLY-SPECIFIED
:DEGREES
271
root  2.78755 51.2078 -40.4934 172.393 14.7837 -166.783
RightUpLeg  -83.7569 -4.95917 9.57505
RightLeg  129.879 -10.2392 11.792
RightFoot  -38.1933 -1.4689 -5.05474
RightToes  2.84633e-005 7.89722e-005 -0.000426369
Spine  19.4577 -0.490067 2.6903
Spine1  39.5264 -1.55295 3.5024
HEad  0.311696 5.95098 -7.19713
LeftShoulder1  -3.88251e-019 0 -3.92111e-022
LeftArm  -30.8269 -13.9967 -74.2934
LeftForeArm  -12.0826 2.36445 3.66123
LeftHand  -0.716985 -7.76187 6.68332
RightShoulder  7.45443e-017 -2.42657e-020 1.96277e-018
RightArm  6.85391 19.9015 57.1939
RightForeArm  -9.58752 35.0257 8.41032
RightHand  -1.89545 14.4753 -11.4398
LeftUpLeg  -83.8417 7.47164 17.7413
LeftLeg  137.684 -0.289324 -0.155448
LeftFoot  -42.5365 1.36823 3.96888
LeftToes  3.91355e-005 3.11907e-005 -4.10385e-006
272
root  2.66521 50.7117 -40.7909 171.33 14.7373 -165.869
RightUpLeg  -83.2064 -6.29531 9.99088
RightLeg  131.663 -10.5185 11.3933
RightFoot  -38.9592 -1.66679 -5.69145
RightToes  2.84633e-005 7.89722e-005 -0.000426369
Spine  19.3031 -0.600023 2.49296
Spine1  39.2101 -1.66228 3.03853
HEad  2.48068 6.30181 -5.80415
LeftShoulder1  -3.88251e-019 0 -3.92111e-022
LeftArm  -31.3994 -13.3611 -73.9255
LeftForeArm  -9.97678 2.36413 3.27736
LeftHand  -0.386385 -8.04152 3.71273
RightShoulder  7.45443e-017 -2.42657e-020 1.96277e-018
RightArm  8.05557 18.1492 56.7506
RightForeArm  -11.5666 33.2953 8.02245
RightHand  -1.77823 14.4304 -10.7756
LeftUpLeg  -83.2944 6.9742 18.4259
LeftLeg  139.865 -0.385151 -0.0881563
LeftFoot  -43.9113 1.55558 4.40463
LeftToes  3.91355e-005 3.11907e-005 -4.10385e-006
273
root  2.58251 50.3861 -40.9212 170.473 14.2251 -164.74
RightUpLeg  -82.5921 -7.65298 10.5635
RightLeg  132.698 -10.7765 11.2589
RightFoot  -38.7311 -1.72442 -5.97618
RightToes  2.84633e-005 7.89722e-005 -0.000426369
Spine  19.1758 -0.663881 2.27988
Spine1  38.9546 -1.69239 2.50825
HEad  4.21522 6.61255 -3.45131
LeftShoulder1  -3.88251e-019 0 -3.92111e-022
LeftArm  -31.2453 -13.0753 -72.9346
LeftForeArm  -8.57912 2.35987 2.70188
LeftHand  -0.290866 -8.40919 2.82418
RightShoulder  7.45443e-017 -2.42657e-020 1.96277e-018
RightArm  8.53246 16.7546 57.1276
RightForeArm  -11.4174 31.3532 7.48454
RightHand  -1.45141 13.7667 -9.19835
LeftUpLeg  -83.1206 6.33647 19.5069
LeftLeg  141.212 0.0499491 -0.423628
LeftFoot  -45.0131 1.56496 4.25642
LeftToes  3.91355e-005 3.11907e-005 -4.10385e-006
274
root  2.52788 50.2058 -41.0202 169.751 13.4924 -163.572
RightUpLeg  -81.826 -8.91653 11.4363
RightLeg  133.435 -10.1543 10.4096
RightFoot  -37.6463 -1.8602 -6.8413
RightToes  2.84633e-005 7.89722e-005 -0.000426369
Spine  19.0613 -0.524916 2.20806
Spine1  38.7188 -1.37333 2.29611
HEad  5.36511 6.49918 -1.24407
LeftShoulder1  -3.88251e-019 0 -3.92111e-022
LeftArm  -31.3441 -13.3914 -72.3674
LeftForeArm  -7.40753 2.36396 3.33213
LeftHand  -0.357633 -8.49384 3.36824
RightShoulder  7.45443e-017 -2.42657e-020 1.96277e-018
RightArm  8.15132 15.2615 57.1918
RightForeArm  -10.6048 29.7619 7.03288
RightHand  -1.83628 13.8695 -11.41
LeftUpLeg  -82.7941 5.6961 20.5986
LeftLeg  142.014 0.553191 -0.785737
LeftFoot  -45.9332 1.62461 4.31039
LeftToes  3.91355e-005 3.11907e-005 -4.10385e-006
275
root  2.47158 50.1465 -41.0819 169.048 12.6081 -162.082
RightUpLeg  -81.0591 -10.3143 12.8834
RightLeg  133.78 -8.9896 9.20361
RightFoot  -34.0669 -2.04109 -8.99383
RightToes  2.84633e-005 7.89722e-005 -0.000426369
Spine  19.05 -0.337867 2.51125
Spine1  38.6813 -1.06973 2.70411
HEad  6.57324 6.02467 0.281611
LeftShoulder1  -3.88251e-019 0 -3.92111e-022
LeftArm  -31.2434 -13.9046 -72.2594
LeftForeArm  -7.70858 2.36425 3.28973
LeftHand  -0.347955 -8.75561 3.23946
RightShoulder  7.45443e-017 -2.42657e-020 1.96277e-018
RightArm  8.52816 14.961 56.6196
RightForeArm  -10.5922 27.4898 6.46977
RightHand  -2.14001 14.436 -12.8877
LeftUpLeg  -82.3203 4.742 21.9842
LeftLeg  142.373 0.940838 -1.05688
LeftFoot  -46.5295 1.65984 4.3306
LeftToes  3.91355e-005 3.11907e-005 -4.10385e-006
276
root  2.37423 50.1482 -41.064 167.987 11.7987 -160.625
RightUpLeg  -81.2333 -11.3173 13.1052
RightLeg  133.218 -10.7203 11.0161
RightFoot  -23.6288 -1.21536 -9.77868
RightToes  2.84633e-005 7.89722e-005 -0.000426369
Spine  19.0352 0.0292941 3.18223
Spine1  38.6378 -0.481028 3.49905
HEad  8.25206 4.8652 1.35002
LeftShoulder1  -3.88251e-019 0 -3.92111e-022
LeftArm  -31.2363 -13.4473 -72.7349
LeftForeArm  -12.6478 2.35461 2.94151
LeftHand  -0.573457 -8.50548 5.16309
RightShoulder  7.45443e-017 -2.42657e-020 1.96277e-018
RightArm  8.59796 14.2947 55.5412
RightForeArm  -11.5453 26.0997 6.1834
RightHand  -1.49119 13.3737 -9.60762
LeftUpLeg  -81.344 3.76199 23.3735
LeftLeg  142.486 1.67827 -1.57927
LeftFoot  -47.0011 1.70661 4.40519
LeftToes  3.91355e-005 3.11907e-005 -4.10385e-006
277
root  2.22136 50.1677 -41.1136 166.326 10.8379 -158.494
RightUpLeg  -81.9607 -12.8206 11.9207
RightLeg  129.64 -16.6049 18.386
RightFoot  -5.21247 0.174881 -5.83128
RightToes  2.84633e-005 7.89722e-005 -0.000426369
Spine  19.1492 0.404074 4.62189
Spine1  38.8396 -0.0355582 5.19665
HEad  10.003 3.49579 2.2453
LeftShoulder1  -3.88251e-019 0 -3.92111e-022
LeftArm  -31.4021 -12.0611 -73.7089
LeftForeArm  -19.8558 2.34983 2.95636
LeftHand  -0.501134 -8.42129 4.58245
RightShoulder  7.45443e-017 -2.42657e-020 1.96277e-018
RightArm  8.07611 13.4342 54.5065
RightForeArm  -12.7915 24.4379 5.87874
RightHand  -1.70109 13.7443 -10.6816
LeftUpLeg  -79.9144 2.54461 24.974
LeftLeg  142.645 2.15665 -1.91009
LeftFoot  -46.8538 1.89571 5.01555
LeftToes  3.91355e-005 3.11907e-005 -4.10385e-006
